<svg xmlns="http://www.w3.org/2000/svg" width="900" height="232" font-family="sans-serif">
<rect width="100%" height="100%" fill="white"/>
<text x="14" y="22" font-size="14">Exp22 initial condition: held-out T4 mean DSI</text>
<line x1="300.0" y1="34" x2="300.0" y2="224" stroke="#999"/>
<text x="292" y="50" text-anchor="end" font-size="11">frozen adapted_40</text>
<rect x="300.0" y="38" width="79.4" height="15" fill="#275e85"/>
<text x="894" y="50" font-size="11" text-anchor="end">+0.0311</text>
<text x="292" y="74" text-anchor="end" font-size="11">frozen cold_filters</text>
<rect x="300.0" y="62" width="95.0" height="15" fill="#275e85"/>
<text x="894" y="74" font-size="11" text-anchor="end">+0.0373</text>
<text x="292" y="98" text-anchor="end" font-size="11">frozen cold_filters_and_membrane</text>
<rect x="300.0" y="86" width="95.0" height="15" fill="#275e85"/>
<text x="894" y="98" font-size="11" text-anchor="end">+0.0373</text>
<text x="292" y="122" text-anchor="end" font-size="11">frozen adapted_30</text>
<rect x="300.0" y="110" width="79.4" height="15" fill="#275e85"/>
<text x="894" y="122" font-size="11" text-anchor="end">+0.0311</text>
<text x="292" y="146" text-anchor="end" font-size="11">frozen adapted_60</text>
<rect x="300.0" y="134" width="79.4" height="15" fill="#275e85"/>
<text x="894" y="146" font-size="11" text-anchor="end">+0.0311</text>
<text x="292" y="170" text-anchor="end" font-size="11">E21 params R1 (cold filters)</text>
<rect x="300.0" y="158" width="480.9" height="15" fill="#275e85"/>
<text x="894" y="170" font-size="11" text-anchor="end">+0.1887</text>
<text x="292" y="194" text-anchor="end" font-size="11">E21 params R2 (adapted)</text>
<rect x="300.0" y="182" width="500.0" height="15" fill="#275e85"/>
<text x="894" y="194" font-size="11" text-anchor="end">+0.1962</text>
</svg>