<svg xmlns="http://www.w3.org/2000/svg" width="960" height="400" font-family="sans-serif">
<rect width="100%" height="100%" fill="white"/>
<text x="14" y="22" font-size="14">E28 MBON01 change when all 418 plastic edges are zeroed (%); R5_MBON01 needs &lt;= -10%</text>
<text x="205.0" y="62" text-anchor="middle" font-size="12">APL x3</text>
<text x="315.0" y="62" text-anchor="middle" font-size="12">APL x4</text>
<text x="425.0" y="62" text-anchor="middle" font-size="12">APL x5</text>
<text x="535.0" y="62" text-anchor="middle" font-size="12">APL x6</text>
<text x="645.0" y="62" text-anchor="middle" font-size="12">APL x8</text>
<text x="142" y="102.0" text-anchor="end" font-size="12">20 ms (1 st)</text>
<rect x="150" y="70" width="108" height="54" fill="rgb(255,244,246)" stroke="#fff" stroke-width="1"/>
<text x="205.0" y="102.0" text-anchor="middle" font-size="13">-1.15%</text>
<rect x="260" y="70" width="108" height="54" fill="rgb(255,207,216)" stroke="#fff" stroke-width="1"/>
<text x="315.0" y="102.0" text-anchor="middle" font-size="13">-5.33%</text>
<rect x="370" y="70" width="108" height="54" fill="rgb(255,197,209)" stroke="#fff" stroke-width="1"/>
<text x="425.0" y="102.0" text-anchor="middle" font-size="13">-6.40%</text>
<rect x="480" y="70" width="108" height="54" fill="rgb(255,220,227)" stroke="#fff" stroke-width="1"/>
<text x="535.0" y="102.0" text-anchor="middle" font-size="13">-3.86%</text>
<rect x="590" y="70" width="108" height="54" fill="rgb(255,181,196)" stroke="#fff" stroke-width="1"/>
<text x="645.0" y="102.0" text-anchor="middle" font-size="13">-8.24%</text>
<text x="142" y="158.0" text-anchor="end" font-size="12">40 ms (2 st)</text>
<rect x="150" y="126" width="108" height="54" fill="rgb(255,223,229)" stroke="#fff" stroke-width="1"/>
<text x="205.0" y="158.0" text-anchor="middle" font-size="13">-3.57%</text>
<rect x="260" y="126" width="108" height="54" fill="rgb(255,209,218)" stroke="#fff" stroke-width="1"/>
<text x="315.0" y="158.0" text-anchor="middle" font-size="13">-5.06%</text>
<rect x="370" y="126" width="108" height="54" fill="rgb(255,229,234)" stroke="#fff" stroke-width="1"/>
<text x="425.0" y="158.0" text-anchor="middle" font-size="13">-2.81%</text>
<rect x="480" y="126" width="108" height="54" fill="rgb(255,231,236)" stroke="#fff" stroke-width="1"/>
<text x="535.0" y="158.0" text-anchor="middle" font-size="13">-2.66%</text>
<rect x="590" y="126" width="108" height="54" fill="rgb(255,227,232)" stroke="#fff" stroke-width="1"/>
<text x="645.0" y="158.0" text-anchor="middle" font-size="13">-3.13%</text>
<text x="142" y="214.0" text-anchor="end" font-size="12">60 ms (3 st)</text>
<rect x="150" y="182" width="108" height="54" fill="rgb(255,150,171)" stroke="#1e8449" stroke-width="4"/>
<text x="205.0" y="214.0" text-anchor="middle" font-size="13">-11.68%</text>
<rect x="260" y="182" width="108" height="54" fill="rgb(255,132,157)" stroke="#1e8449" stroke-width="4"/>
<text x="315.0" y="214.0" text-anchor="middle" font-size="13">-13.68%</text>
<rect x="370" y="182" width="108" height="54" fill="rgb(255,117,145)" stroke="#1e8449" stroke-width="4"/>
<text x="425.0" y="214.0" text-anchor="middle" font-size="13">-15.36%</text>
<rect x="480" y="182" width="108" height="54" fill="rgb(255,196,208)" stroke="#fff" stroke-width="1"/>
<text x="535.0" y="214.0" text-anchor="middle" font-size="13">-6.56%</text>
<rect x="590" y="182" width="108" height="54" fill="rgb(255,192,204)" stroke="#fff" stroke-width="1"/>
<text x="645.0" y="214.0" text-anchor="middle" font-size="13">-7.06%</text>
<text x="142" y="270.0" text-anchor="end" font-size="12">80 ms (4 st)</text>
<rect x="150" y="238" width="108" height="54" fill="rgb(255,122,148)" stroke="#1e8449" stroke-width="4"/>
<text x="205.0" y="270.0" text-anchor="middle" font-size="13">-14.89%</text>
<rect x="260" y="238" width="108" height="54" fill="rgb(255,141,164)" stroke="#1e8449" stroke-width="4"/>
<text x="315.0" y="270.0" text-anchor="middle" font-size="13">-12.67%</text>
<rect x="370" y="238" width="108" height="54" fill="rgb(255,150,171)" stroke="#1e8449" stroke-width="4"/>
<text x="425.0" y="270.0" text-anchor="middle" font-size="13">-11.74%</text>
<rect x="480" y="238" width="108" height="54" fill="rgb(255,158,177)" stroke="#1e8449" stroke-width="4"/>
<text x="535.0" y="270.0" text-anchor="middle" font-size="13">-10.86%</text>
<rect x="590" y="238" width="108" height="54" fill="rgb(255,183,198)" stroke="#fff" stroke-width="1"/>
<text x="645.0" y="270.0" text-anchor="middle" font-size="13">-7.97%</text>
<text x="142" y="326.0" text-anchor="end" font-size="12">100 ms (5 st)</text>
<rect x="150" y="294" width="108" height="54" fill="rgb(255,114,142)" stroke="#1e8449" stroke-width="4"/>
<text x="205.0" y="326.0" text-anchor="middle" font-size="13">-15.75%</text>
<rect x="260" y="294" width="108" height="54" fill="rgb(255,132,157)" stroke="#1e8449" stroke-width="4"/>
<text x="315.0" y="326.0" text-anchor="middle" font-size="13">-13.67%</text>
<rect x="370" y="294" width="108" height="54" fill="rgb(255,113,141)" stroke="#1e8449" stroke-width="4"/>
<text x="425.0" y="326.0" text-anchor="middle" font-size="13">-15.85%</text>
<rect x="480" y="294" width="108" height="54" fill="rgb(255,105,135)" stroke="#1e8449" stroke-width="4"/>
<text x="535.0" y="326.0" text-anchor="middle" font-size="13">-16.81%</text>
<rect x="590" y="294" width="108" height="54" fill="rgb(255,190,203)" stroke="#fff" stroke-width="1"/>
<text x="645.0" y="326.0" text-anchor="middle" font-size="13">-7.17%</text>
<text x="150" y="384" font-size="11">green outline = criterion passes at this point; rows: requested refractory (effective steps); columns: APL output gain</text>
</svg>