<svg xmlns="http://www.w3.org/2000/svg" width="900" height="352" font-family="sans-serif">
<rect width="100%" height="100%" fill="white"/>
<text x="14" y="22" font-size="14">Exp23 T4 ON minus OFF mean response (should stay &gt; 0)</text>
<line x1="300.0" y1="34" x2="300.0" y2="344" stroke="#999"/>
<text x="292" y="50" text-anchor="end" font-size="11">native T4a</text>
<rect x="300.0" y="38" width="330.8" height="15" fill="#275e85"/>
<text x="894" y="50" font-size="11" text-anchor="end">+0.0026</text>
<text x="292" y="74" text-anchor="end" font-size="11">native T4b</text>
<rect x="300.0" y="62" width="444.0" height="15" fill="#275e85"/>
<text x="894" y="74" font-size="11" text-anchor="end">+0.0035</text>
<text x="292" y="98" text-anchor="end" font-size="11">native T4c</text>
<rect x="300.0" y="86" width="402.6" height="15" fill="#275e85"/>
<text x="894" y="98" font-size="11" text-anchor="end">+0.0032</text>
<text x="292" y="122" text-anchor="end" font-size="11">native T4d</text>
<rect x="300.0" y="110" width="495.5" height="15" fill="#275e85"/>
<text x="894" y="122" font-size="11" text-anchor="end">+0.0039</text>
<text x="292" y="146" text-anchor="end" font-size="11">reversed T4a</text>
<rect x="300.0" y="134" width="326.1" height="15" fill="#275e85"/>
<text x="894" y="146" font-size="11" text-anchor="end">+0.0026</text>
<text x="292" y="170" text-anchor="end" font-size="11">reversed T4b</text>
<rect x="300.0" y="158" width="453.5" height="15" fill="#275e85"/>
<text x="894" y="170" font-size="11" text-anchor="end">+0.0036</text>
<text x="292" y="194" text-anchor="end" font-size="11">reversed T4c</text>
<rect x="300.0" y="182" width="405.6" height="15" fill="#275e85"/>
<text x="894" y="194" font-size="11" text-anchor="end">+0.0032</text>
<text x="292" y="218" text-anchor="end" font-size="11">reversed T4d</text>
<rect x="300.0" y="206" width="500.0" height="15" fill="#275e85"/>
<text x="894" y="218" font-size="11" text-anchor="end">+0.0039</text>
<text x="292" y="242" text-anchor="end" font-size="11">colocated T4a</text>
<rect x="300.0" y="230" width="321.4" height="15" fill="#275e85"/>
<text x="894" y="242" font-size="11" text-anchor="end">+0.0025</text>
<text x="292" y="266" text-anchor="end" font-size="11">colocated T4b</text>
<rect x="300.0" y="254" width="439.0" height="15" fill="#275e85"/>
<text x="894" y="266" font-size="11" text-anchor="end">+0.0035</text>
<text x="292" y="290" text-anchor="end" font-size="11">colocated T4c</text>
<rect x="300.0" y="278" width="395.6" height="15" fill="#275e85"/>
<text x="894" y="290" font-size="11" text-anchor="end">+0.0031</text>
<text x="292" y="314" text-anchor="end" font-size="11">colocated T4d</text>
<rect x="300.0" y="302" width="487.7" height="15" fill="#275e85"/>
<text x="894" y="314" font-size="11" text-anchor="end">+0.0038</text>
</svg>