<svg xmlns="http://www.w3.org/2000/svg" width="900" height="400" font-family="sans-serif">
<rect width="100%" height="100%" fill="white"/>
<text x="14" y="22" font-size="14">Exp21 vs E20 vs E19 oracle (held-out mean DSI)</text>
<line x1="300.0" y1="34" x2="300.0" y2="392" stroke="#999"/>
<line x1="510.5" y1="34" x2="510.5" y2="392" stroke="#c0392b" stroke-dasharray="4"/>
<text x="292" y="50" text-anchor="end" font-size="11">E20 C0 (D0) T4</text>
<rect x="300.0" y="38" width="7.5" height="15" fill="#275e85"/>
<text x="894" y="50" font-size="11" text-anchor="end">+0.0054</text>
<text x="292" y="74" text-anchor="end" font-size="11">E20 C2 (D0) T4</text>
<rect x="300.0" y="62" width="17.8" height="15" fill="#275e85"/>
<text x="894" y="74" font-size="11" text-anchor="end">+0.0127</text>
<text x="292" y="98" text-anchor="end" font-size="11">E21 frozen T4</text>
<rect x="300.0" y="86" width="36.2" height="15" fill="#275e85"/>
<text x="894" y="98" font-size="11" text-anchor="end">+0.0258</text>
<text x="292" y="122" text-anchor="end" font-size="11">E21 best D1 T4</text>
<rect x="300.0" y="110" width="36.2" height="15" fill="#275e85"/>
<text x="894" y="122" font-size="11" text-anchor="end">+0.0258</text>
<text x="292" y="146" text-anchor="end" font-size="11">E21 best D2 T4</text>
<rect x="300.0" y="134" width="23.0" height="15" fill="#275e85"/>
<text x="894" y="146" font-size="11" text-anchor="end">+0.0164</text>
<text x="292" y="170" text-anchor="end" font-size="11">E21 best D3 T4</text>
<rect x="300.0" y="158" width="21.2" height="15" fill="#275e85"/>
<text x="894" y="170" font-size="11" text-anchor="end">+0.0151</text>
<text x="292" y="194" text-anchor="end" font-size="11">E19 oracle T4</text>
<rect x="300.0" y="182" width="481.0" height="15" fill="#275e85"/>
<text x="894" y="194" font-size="11" text-anchor="end">+0.3427</text>
<text x="292" y="218" text-anchor="end" font-size="11">E20 C0 (D0) all-8</text>
<rect x="300.0" y="206" width="9.4" height="15" fill="#275e85"/>
<text x="894" y="218" font-size="11" text-anchor="end">+0.0067</text>
<text x="292" y="242" text-anchor="end" font-size="11">E20 C2 (D0) all-8</text>
<rect x="300.0" y="230" width="34.5" height="15" fill="#275e85"/>
<text x="894" y="242" font-size="11" text-anchor="end">+0.0246</text>
<text x="292" y="266" text-anchor="end" font-size="11">E21 frozen all-8</text>
<rect x="300.0" y="254" width="19.5" height="15" fill="#275e85"/>
<text x="894" y="266" font-size="11" text-anchor="end">+0.0139</text>
<text x="292" y="290" text-anchor="end" font-size="11">E21 best D1 all-8</text>
<rect x="300.0" y="278" width="19.5" height="15" fill="#275e85"/>
<text x="894" y="290" font-size="11" text-anchor="end">+0.0139</text>
<text x="292" y="314" text-anchor="end" font-size="11">E21 best D2 all-8</text>
<rect x="300.0" y="302" width="8.7" height="15" fill="#275e85"/>
<text x="894" y="314" font-size="11" text-anchor="end">+0.0062</text>
<text x="292" y="338" text-anchor="end" font-size="11">E21 best D3 all-8</text>
<rect x="300.0" y="326" width="7.8" height="15" fill="#275e85"/>
<text x="894" y="338" font-size="11" text-anchor="end">+0.0055</text>
<text x="292" y="362" text-anchor="end" font-size="11">E19 oracle all-8</text>
<rect x="300.0" y="350" width="500.0" height="15" fill="#275e85"/>
<text x="894" y="362" font-size="11" text-anchor="end">+0.3562</text>
</svg>