<svg xmlns="http://www.w3.org/2000/svg" width="820" height="294">
<rect width="100%" height="100%" fill="white"/>
<text x="15" y="26" font-size="15">Exp17 held-out preferred-minus-null spikes (E_tonic_delay1)</text>
<line x1="465.4" y1="40" x2="465.4" y2="282" stroke="#999"/>
<text x="240" y="60" text-anchor="end" font-size="11">T5a_L pref-null</text>
<rect x="412.7" y="46" width="52.7" height="18" fill="#275e85"/>
<text x="812" y="60" font-size="11" text-anchor="end">-0.0050</text>
<text x="240" y="88" text-anchor="end" font-size="11">T5a_R pref-null</text>
<rect x="465.4" y="74" width="284.6" height="18" fill="#275e85"/>
<text x="812" y="88" font-size="11" text-anchor="end">0.0271</text>
<text x="240" y="116" text-anchor="end" font-size="11">T5b_L pref-null</text>
<rect x="390.6" y="102" width="74.7" height="18" fill="#275e85"/>
<text x="812" y="116" font-size="11" text-anchor="end">-0.0071</text>
<text x="240" y="144" text-anchor="end" font-size="11">T5b_R pref-null</text>
<rect x="250.0" y="130" width="215.4" height="18" fill="#275e85"/>
<text x="812" y="144" font-size="11" text-anchor="end">-0.0205</text>
<text x="240" y="172" text-anchor="end" font-size="11">T5c_L pref-null</text>
<rect x="465.4" y="158" width="63.2" height="18" fill="#275e85"/>
<text x="812" y="172" font-size="11" text-anchor="end">0.0060</text>
<text x="240" y="200" text-anchor="end" font-size="11">T5c_R pref-null</text>
<rect x="465.4" y="186" width="78.2" height="18" fill="#275e85"/>
<text x="812" y="200" font-size="11" text-anchor="end">0.0075</text>
<text x="240" y="228" text-anchor="end" font-size="11">T5d_L pref-null</text>
<rect x="465.4" y="214" width="68.4" height="18" fill="#275e85"/>
<text x="812" y="228" font-size="11" text-anchor="end">0.0065</text>
<text x="240" y="256" text-anchor="end" font-size="11">T5d_R pref-null</text>
<rect x="321.3" y="242" width="144.0" height="18" fill="#275e85"/>
<text x="812" y="256" font-size="11" text-anchor="end">-0.0137</text>
</svg>