<svg xmlns="http://www.w3.org/2000/svg" width="900" height="352" font-family="sans-serif">
<rect width="100%" height="100%" fill="white"/>
<text x="14" y="22" font-size="14">E27 DAN stimulation headroom (percentage points of duty); R4 needs &gt;= 10</text>
<line x1="300.0" y1="34" x2="300.0" y2="344" stroke="#999"/>
<line x1="800.0" y1="34" x2="800.0" y2="344" stroke="#c0392b" stroke-dasharray="4"/>
<text x="292" y="50" text-anchor="end" font-size="11">ref0ms PAM01</text>
<rect x="300.0" y="38" width="0.5" height="15" fill="#275e85"/>
<text x="894" y="50" font-size="11" text-anchor="end">+0.0000</text>
<text x="292" y="74" text-anchor="end" font-size="11">ref0ms PPL101</text>
<rect x="300.0" y="62" width="0.5" height="15" fill="#275e85"/>
<text x="894" y="74" font-size="11" text-anchor="end">+0.0000</text>
<text x="292" y="98" text-anchor="end" font-size="11">ref20ms PAM01</text>
<rect x="300.0" y="86" width="168.2" height="15" fill="#275e85"/>
<text x="894" y="98" font-size="11" text-anchor="end">+3.3636</text>
<text x="292" y="122" text-anchor="end" font-size="11">ref20ms PPL101</text>
<rect x="300.0" y="110" width="145.8" height="15" fill="#275e85"/>
<text x="894" y="122" font-size="11" text-anchor="end">+2.9167</text>
<text x="292" y="146" text-anchor="end" font-size="11">ref40ms PAM01</text>
<rect x="300.0" y="134" width="236.9" height="15" fill="#275e85"/>
<text x="894" y="146" font-size="11" text-anchor="end">+4.7386</text>
<text x="292" y="170" text-anchor="end" font-size="11">ref40ms PPL101</text>
<rect x="300.0" y="158" width="133.3" height="15" fill="#275e85"/>
<text x="894" y="170" font-size="11" text-anchor="end">+2.6667</text>
<text x="292" y="194" text-anchor="end" font-size="11">ref60ms PAM01</text>
<rect x="300.0" y="182" width="352.1" height="15" fill="#275e85"/>
<text x="894" y="194" font-size="11" text-anchor="end">+7.0417</text>
<text x="292" y="218" text-anchor="end" font-size="11">ref60ms PPL101</text>
<rect x="300.0" y="206" width="379.2" height="15" fill="#275e85"/>
<text x="894" y="218" font-size="11" text-anchor="end">+7.5833</text>
<text x="292" y="242" text-anchor="end" font-size="11">ref80ms PAM01</text>
<rect x="300.0" y="230" width="246.6" height="15" fill="#275e85"/>
<text x="894" y="242" font-size="11" text-anchor="end">+4.9318</text>
<text x="292" y="266" text-anchor="end" font-size="11">ref80ms PPL101</text>
<rect x="300.0" y="254" width="262.5" height="15" fill="#275e85"/>
<text x="894" y="266" font-size="11" text-anchor="end">+5.2500</text>
<text x="292" y="290" text-anchor="end" font-size="11">ref100ms PAM01</text>
<rect x="300.0" y="278" width="226.9" height="15" fill="#275e85"/>
<text x="894" y="290" font-size="11" text-anchor="end">+4.5379</text>
<text x="292" y="314" text-anchor="end" font-size="11">ref100ms PPL101</text>
<rect x="300.0" y="302" width="233.3" height="15" fill="#275e85"/>
<text x="894" y="314" font-size="11" text-anchor="end">+4.6667</text>
</svg>